# xmcd
#
# Track frame offsets:
#	150
#	18273
#	37147
#	57201
#	84551
#	110816
#
# Disc length: 1779 seconds
#
# Revision: 1
# Processed by: cddbd v1.5.2PL0 Copyright (c) Steve Scherf et al.
# Submitted via: audiograbber 1.83.01
#
DISCID=4a06f106
DTITLE=VineyardNeuDeutsch Ed Einsiedler Mannheim - Was willst Du heute tun?
DYEAR=1900
DGENRE=Lobpreis
TTITLE0=Du bist Gott
TTITLE1=Wie geht es Dir?
TTITLE2=Wir fliegen los
TTITLE3=Du bist das Licht
TTITLE4=Komm Geist Gottes (John Wimber Gebet)
TTITLE5=Nur mit Dir
EXTD=
EXTT0=
EXTT1=
EXTT2=
EXTT3=
EXTT4=
EXTT5=
PLAYORDER=
